<svg width="18" height="18" viewBox="0 0 18 18" fill="none" xmlns="http://www.w3.org/2000/svg">
<path fill-rule="evenodd" clip-rule="evenodd" d="M12.5006 11.5006H11.7106L11.4306 11.2306C12.6306 9.83063 13.2506 7.92063 12.9106 5.89063C12.4406 3.11063 10.1206 0.890626 7.32063 0.550626C3.09063 0.0306256 -0.469374 3.59063 0.0506256 7.82063C0.390626 10.6206 2.61063 12.9406 5.39063 13.4106C7.42063 13.7506 9.33063 13.1306 10.7306 11.9306L11.0006 12.2106V13.0006L15.2506 17.2506C15.6606 17.6606 16.3306 17.6606 16.7406 17.2506C17.1506 16.8406 17.1506 16.1706 16.7406 15.7606L12.5006 11.5006ZM6.50063 11.5006C4.01063 11.5006 2.00063 9.49063 2.00063 7.00063C2.00063 4.51063 4.01063 2.50063 6.50063 2.50063C8.99063 2.50063 11.0006 4.51063 11.0006 7.00063C11.0006 9.49063 8.99063 11.5006 6.50063 11.5006Z" fill="#C3CAD9"/>
</svg>
